<svg width="769" height="505" viewBox="0 0 769 505" fill="none" xmlns="http://www.w3.org/2000/svg">
<g clip-path="url(#clip0)">
<path d="M769 0.28772H261.339V325.321H769V0.28772Z" fill="#E6E6E6"/>
<path d="M754.484 41.0551H275.855V306.092H754.484V41.0551Z" fill="white"/>
<path d="M768.783 0H261.122V21.561H768.783V0Z" fill="#65637A"/>
<path d="M277.149 15.0193C279.356 15.0193 281.146 13.2302 281.146 11.0231C281.146 8.81612 279.356 7.02698 277.149 7.02698C274.941 7.02698 273.151 8.81612 273.151 11.0231C273.151 13.2302 274.941 15.0193 277.149 15.0193Z" fill="white"/>
<path d="M292.322 15.0193C294.529 15.0193 296.319 13.2302 296.319 11.0231C296.319 8.81612 294.529 7.02698 292.322 7.02698C290.114 7.02698 288.324 8.81612 288.324 11.0231C288.324 13.2302 290.114 15.0193 292.322 15.0193Z" fill="white"/>
<path d="M307.494 15.0193C309.702 15.0193 311.492 13.2302 311.492 11.0231C311.492 8.81612 309.702 7.02698 307.494 7.02698C305.287 7.02698 303.497 8.81612 303.497 11.0231C303.497 13.2302 305.287 15.0193 307.494 15.0193Z" fill="white"/>
<path d="M371.317 85.8556H323.285V107.109H371.317V85.8556Z" fill="#E6E6E6"/>
<path d="M467.382 129.938H419.35V151.191H467.382V129.938Z" fill="#E6E6E6"/>
<path d="M371.317 196.06H323.285V217.314H371.317V196.06Z" fill="#65637A"/>
<path d="M467.382 240.142H419.35V261.396H467.382V240.142Z" fill="#65637A"/>
<path d="M706.753 262.183H658.721V283.437H706.753V262.183Z" fill="#65637A"/>
<path d="M658.721 174.02H610.689V195.273H658.721V174.02Z" fill="#E6E6E6"/>
<path d="M563.445 174.02H467.381V195.273H563.445V174.02Z" fill="#65637A"/>
<path d="M563.445 63.0275H467.381V84.2812H563.445V63.0275Z" fill="#65637A"/>
<path d="M275.254 40.1993V307.052H755.573V40.1993H275.254ZM753.998 62.306H707.698V41.7737H753.998V62.306ZM468.326 217.052V196.52H562.5V217.052H468.326ZM562.5 218.626V239.158H468.326V218.626H562.5ZM562.5 130.2V150.732H468.326V130.2H562.5ZM468.326 128.626V108.093H562.5V128.626H468.326ZM468.326 172.839V152.306H562.5V172.839H468.326ZM562.5 174.413V194.945H468.326V174.413H562.5ZM466.752 150.732H420.452V130.2H466.752V150.732ZM466.752 152.306V172.839H420.452V152.306H466.752ZM466.752 174.413V194.945H420.452V174.413H466.752ZM466.752 196.52V217.052H420.452V196.52H466.752ZM564.075 196.52H610.374V217.052H564.075V196.52ZM564.075 194.945V174.413H610.374V194.945H564.075ZM564.075 172.839V152.306H610.374V172.839H564.075ZM564.075 150.732V130.2H610.374V150.732H564.075ZM564.075 128.626V108.093H610.374V128.626H564.075ZM564.075 106.519V85.9867H610.374V106.519H564.075ZM562.5 106.519H468.326V85.9867H562.5V106.519ZM466.752 106.519H420.452V85.9867H466.752V106.519ZM466.752 108.093V128.626H420.452V108.093L466.752 108.093ZM418.877 128.626H372.577V108.093H418.877V128.626ZM418.877 130.2V150.732H372.577V130.2H418.877ZM418.877 152.306V172.839H372.577V152.306H418.877ZM418.877 174.413V194.945H372.577V174.413H418.877ZM418.877 196.52V217.052H372.577V196.52H418.877ZM418.877 218.626V239.158H372.577V218.626H418.877ZM420.452 218.626H466.752V239.158H420.452V218.626ZM466.752 240.733V261.265H420.452V240.733H466.752ZM468.326 240.733H562.5V261.265H468.326V240.733ZM564.075 240.733H610.374V261.265H564.075V240.733ZM564.075 239.158V218.626H610.374V239.158H564.075ZM611.949 218.626H658.249V239.158H611.949V218.626ZM611.949 217.052V196.52H658.249V217.052H611.949ZM611.949 194.945V174.413H658.249V194.945H611.949ZM611.949 172.839V152.306H658.249V172.839H611.949ZM611.949 150.732V130.2H658.249V150.732H611.949ZM611.949 128.626V108.093H658.249V128.626H611.949ZM611.949 106.519V85.9867H658.249V106.519H611.949ZM611.949 84.4123V63.8804H658.249V84.4123H611.949ZM610.374 84.4123H564.075V63.8804H610.374V84.4123ZM562.5 84.4123H468.326V63.8804H562.5V84.4123ZM466.752 84.4123H420.452V63.8804H466.752V84.4123ZM418.877 84.4123H372.577V63.8804H418.877V84.4123ZM418.877 85.9867V106.519H372.577V85.9867H418.877ZM371.002 106.519H324.703V85.9867H371.002V106.519ZM371.002 108.093V128.626H324.703V108.093L371.002 108.093ZM371.002 130.2V150.732H324.703V130.2H371.002ZM371.002 152.306V172.839H324.703V152.306H371.002ZM371.002 174.413V194.945H324.703V174.413H371.002ZM371.002 196.52V217.052H324.703V196.52H371.002ZM371.002 218.626V239.158H324.703V218.626H371.002ZM371.002 240.733V261.265H324.703V240.733H371.002ZM372.577 240.733H418.877V261.265H372.577V240.733ZM418.877 262.839V283.372H372.577V262.839H418.877ZM420.452 262.839H466.752V283.372H420.452V262.839ZM468.326 262.839H562.5V283.372H468.326V262.839ZM564.075 262.839H610.374V283.372H564.075V262.839ZM611.949 262.839H658.249V283.372H611.949V262.839ZM611.949 261.265V240.733H658.249V261.265H611.949ZM659.824 240.733H706.124V261.265H659.824V240.733ZM659.824 239.158V218.626H706.124V239.158H659.824ZM659.824 217.052V196.52H706.124V217.052H659.824ZM659.824 194.945V174.413H706.124V194.945H659.824ZM659.824 172.839V152.306H706.124V172.839H659.824ZM659.824 150.732V130.2H706.124V150.732H659.824ZM659.824 128.626V108.093H706.124V128.626H659.824ZM659.824 106.519V85.9867H706.124V106.519H659.824ZM659.824 84.4123V63.8804H706.124V84.4123H659.824ZM659.824 62.306V41.7737H706.124V62.306L659.824 62.306ZM658.249 62.306H611.949V41.7737H658.249V62.306ZM610.374 62.306H564.075V41.7737H610.374V62.306ZM562.5 62.306H468.326V41.7737H562.5V62.306ZM466.752 62.306H420.452V41.7737H466.752V62.306ZM418.877 62.306H372.577V41.7737H418.877V62.306ZM371.002 62.306H324.703V41.7737H371.002V62.306ZM371.002 63.8804V84.4123H324.703V63.8804H371.002ZM323.128 84.4123H276.829V63.8804H323.128V84.4123ZM323.128 85.9867V106.519H276.829V85.9867H323.128ZM323.128 108.093V128.626H276.829V108.093L323.128 108.093ZM323.128 130.2V150.732H276.829V130.2H323.128ZM323.128 152.306V172.839H276.829V152.306H323.128ZM323.128 174.413V194.945H276.829V174.413H323.128ZM323.128 196.52V217.052H276.829V196.52H323.128ZM323.128 218.626V239.158H276.829V218.626H323.128ZM323.128 240.733V261.265H276.829V240.733H323.128ZM323.128 262.839V283.372H276.829V262.839H323.128ZM324.703 262.839H371.002V283.372H324.703V262.839ZM371.002 284.946V305.478H324.703V284.946H371.002ZM372.577 284.946H418.877V305.478H372.577V284.946ZM420.452 284.946H466.752V305.478H420.452V284.946ZM468.326 284.946H562.5V305.478H468.326V284.946ZM564.075 284.946H610.374V305.478H564.075V284.946ZM611.949 284.946H658.249V305.478H611.949V284.946ZM659.824 284.946H706.124V305.478H659.824V284.946ZM659.824 283.372V262.839H706.124V283.372H659.824ZM707.698 262.839H753.998V283.372H707.698V262.839ZM707.698 261.265V240.733H753.998V261.265H707.698ZM707.698 239.158V218.626H753.998V239.158H707.698ZM707.698 217.052V196.52H753.998V217.052H707.698ZM707.698 194.945V174.413H753.998V194.945H707.698ZM707.698 172.839V152.306H753.998V172.839H707.698ZM707.698 150.732V130.2H753.998V150.732H707.698ZM707.698 128.626V108.093H753.998V128.626H707.698ZM707.698 106.519V85.9867H753.998V106.519H707.698ZM707.698 84.4123V63.8804H753.998V84.4123H707.698ZM323.128 41.7737V62.306H276.829V41.7737H323.128ZM276.829 284.946H323.128V305.478H276.829V284.946ZM707.698 305.478V284.946H753.998V305.478H707.698Z" fill="#E6E6E6"/>
<g clip-path="url(#clip1)">
<path d="M244.253 443.45C244.253 447.744 204.839 448.202 156.329 451.226C107.864 454.247 68.4043 447.744 68.4043 443.45C68.4043 439.155 108.046 430.514 156.329 435.674C204.839 440.858 244.253 439.155 244.253 443.45Z" fill="#E6E6E6"/>
<path d="M303.245 171H199.028C193.999 171 189.12 172.707 185.192 175.84C181.265 178.972 178.522 183.344 177.416 188.238L124.758 421.201C124.183 423.742 124.173 426.378 124.728 428.923C125.283 431.468 126.389 433.862 127.97 435.936C129.55 438.009 131.566 439.713 133.876 440.928C136.187 442.142 138.735 442.838 141.344 442.966L248.479 448.231C254.216 448.513 259.859 446.703 264.357 443.14C268.854 439.577 271.898 434.503 272.92 428.866L302.792 264.158L305.014 264.791L310.729 233.573L308.442 233.002L316.78 187.027C317.137 185.057 317.054 183.034 316.537 181.1C316.021 179.166 315.082 177.37 313.79 175.84C312.497 174.309 310.882 173.082 309.059 172.246C307.236 171.409 305.251 170.984 303.245 171L303.245 171Z" fill="#3F3D56"/>
<path d="M212.748 176.023H200.583C197.089 176.023 193.701 177.214 190.98 179.4C188.259 181.586 186.369 184.634 185.624 188.038L135.079 419.101C134.788 420.431 134.789 421.808 135.08 423.139C135.372 424.469 135.948 425.721 136.769 426.809C137.59 427.896 138.637 428.795 139.838 429.442C141.039 430.09 142.365 430.471 143.728 430.56L250.516 437.54C253.529 437.737 256.509 436.821 258.887 434.966C261.266 433.112 262.876 430.448 263.412 427.485L306.542 188.659C306.821 187.113 306.757 185.525 306.353 184.007C305.95 182.488 305.217 181.077 304.207 179.872C303.197 178.667 301.935 177.697 300.508 177.032C299.081 176.367 297.526 176.023 295.951 176.023H284.41C283.294 176.023 282.208 176.39 281.321 177.068C280.435 177.745 279.797 178.695 279.506 179.771C279.25 180.721 278.687 181.56 277.904 182.158C277.122 182.756 276.163 183.081 275.177 183.081H220.39C218.459 183.081 216.599 182.354 215.182 181.045C213.765 179.737 212.896 177.943 212.748 176.023V176.023Z" fill="white"/>
<path d="M273.351 337.555C273.56 337.563 273.765 337.496 273.929 337.366C274.093 337.237 274.205 337.053 274.245 336.848L298.19 206.852C298.213 206.728 298.208 206.601 298.177 206.479C298.145 206.357 298.087 206.244 298.007 206.147C297.927 206.05 297.827 205.971 297.713 205.917C297.599 205.862 297.475 205.833 297.349 205.832L188.407 204.566H188.397C188.2 204.567 188.009 204.634 187.856 204.756C187.702 204.879 187.595 205.05 187.551 205.241L159.323 331.017C159.295 331.14 159.295 331.268 159.322 331.391C159.349 331.514 159.402 331.629 159.479 331.73C159.555 331.83 159.653 331.912 159.765 331.971C159.876 332.029 160 332.063 160.126 332.069L273.351 337.555Z" fill="#E6E6E6"/>
<path d="M178.542 345.859C178.444 345.859 178.35 345.892 178.273 345.953C178.197 346.014 178.143 346.098 178.121 346.193L177.115 350.494C177.101 350.555 177.1 350.618 177.112 350.679C177.125 350.741 177.151 350.798 177.188 350.849C177.225 350.899 177.273 350.941 177.328 350.971C177.383 351.001 177.443 351.019 177.506 351.023L234.345 355.053C234.45 355.059 234.554 355.028 234.638 354.964C234.722 354.9 234.78 354.807 234.801 354.704L235.768 349.728C235.78 349.668 235.779 349.606 235.764 349.546C235.75 349.486 235.723 349.43 235.685 349.381C235.648 349.332 235.6 349.292 235.545 349.264C235.491 349.235 235.431 349.218 235.369 349.215L178.568 345.86C178.56 345.86 178.551 345.859 178.542 345.859Z" fill="#E6E6E6"/>
<path d="M247.598 371.033C247.701 371.041 247.803 371.013 247.886 370.953C247.969 370.893 248.029 370.805 248.054 370.706L249.285 365.719C249.3 365.658 249.302 365.594 249.29 365.533C249.277 365.471 249.252 365.412 249.215 365.361C249.177 365.31 249.129 365.268 249.074 365.238C249.019 365.207 248.958 365.189 248.894 365.185L176.309 360.121C176.21 360.114 176.112 360.14 176.031 360.196C175.95 360.252 175.891 360.335 175.863 360.429L174.583 364.738C174.565 364.8 174.561 364.865 174.571 364.929C174.581 364.992 174.605 365.053 174.641 365.106C174.678 365.159 174.726 365.203 174.781 365.235C174.837 365.267 174.9 365.286 174.964 365.292L247.598 371.033Z" fill="#E6E6E6"/>
<path d="M243.7 387.017C243.803 387.025 243.905 386.997 243.988 386.937C244.071 386.877 244.131 386.789 244.155 386.69L245.387 381.703C245.402 381.642 245.403 381.578 245.391 381.517C245.379 381.455 245.353 381.396 245.316 381.345C245.279 381.294 245.231 381.252 245.176 381.222C245.12 381.191 245.059 381.173 244.996 381.169L172.41 376.105C172.312 376.098 172.214 376.124 172.133 376.18C172.051 376.236 171.992 376.319 171.965 376.413L170.685 380.722C170.667 380.784 170.662 380.849 170.672 380.913C170.682 380.976 170.706 381.037 170.743 381.09C170.779 381.143 170.827 381.187 170.883 381.219C170.939 381.251 171.001 381.27 171.065 381.276L243.7 387.017Z" fill="#E6E6E6"/>
<path d="M210.27 414.438C210.373 414.449 210.477 414.422 210.562 414.362C210.646 414.302 210.707 414.213 210.731 414.113L213.335 403.723C213.35 403.662 213.352 403.599 213.34 403.537C213.329 403.475 213.304 403.417 213.267 403.366C213.231 403.315 213.183 403.273 213.129 403.242C213.074 403.211 213.014 403.192 212.951 403.187L168.376 399.447C168.272 399.44 168.168 399.47 168.084 399.532C168 399.593 167.941 399.683 167.916 399.784L165.695 409.756C165.682 409.816 165.681 409.878 165.694 409.938C165.706 409.998 165.731 410.054 165.768 410.104C165.804 410.153 165.85 410.195 165.903 410.225C165.957 410.255 166.016 410.274 166.077 410.28L210.27 414.438Z" fill="#65637A"/>
</g>
<path d="M105.509 245.22C77.61 119.579 173.877 28.1068 205.524 50.1225" stroke="#2F2E41" stroke-opacity="0.5" stroke-width="3" stroke-miterlimit="10"/>
<path d="M202.69 72.2081C202.69 72.2081 224.216 62.4672 225.979 58.6499C227.743 54.8326 215.762 33.0828 215.762 33.0828" stroke="#2F2E41" stroke-opacity="0.5" stroke-width="3" stroke-miterlimit="10"/>
<path d="M484.339 270.972C484.17 399.673 370.274 467.953 344.189 439.566" stroke="#2F2E41" stroke-opacity="0.5" stroke-width="3" stroke-miterlimit="10"/>
<path d="M351.771 418.63C351.771 418.63 328.639 423.443 326.085 426.784C323.531 430.125 330.482 453.964 330.482 453.964" stroke="#2F2E41" stroke-opacity="0.5" stroke-width="3" stroke-miterlimit="10"/>
</g>
<defs>
<clipPath id="clip0">
<rect width="769" height="505" fill="white"/>
</clipPath>
<clipPath id="clip1">
<rect width="375" height="281" fill="white" transform="translate(-58 171)"/>
</clipPath>
</defs>
</svg>
