<svg width="512" height="512" viewBox="0 0 512 512" fill="none" xmlns="http://www.w3.org/2000/svg">
<path d="M407 0H105C47.103 0 0 47.103 0 105V407C0 464.897 47.103 512 105 512H407C464.897 512 512 464.897 512 407V105C512 47.103 464.897 0 407 0ZM157.649 394.515C153.024 402.526 144.603 407.009 135.956 407.01C131.717 407.01 127.425 405.933 123.498 403.666C111.56 396.774 107.455 381.454 114.347 369.516L119.264 361H176.999L157.649 394.515ZM110.5 341C96.715 341 85.5 329.785 85.5 316C85.5 302.215 96.715 291 110.5 291H159.678L227.132 174.166L208.851 142.502C201.959 130.564 206.063 115.244 218.001 108.351H218.002C229.94 101.459 245.26 105.565 252.152 117.502L256 124.167L259.848 117.503C266.743 105.564 282.063 101.46 293.998 108.352C299.781 111.691 303.918 117.082 305.646 123.532C307.375 129.982 306.487 136.72 303.148 142.503L217.413 291H271.492L300.36 341H110.5ZM401.5 341H381.189L397.652 369.515C404.545 381.452 400.44 396.772 388.503 403.665C384.65 405.889 380.374 407.026 376.042 407.026C373.87 407.026 371.686 406.741 369.531 406.163C363.08 404.434 357.689 400.297 354.35 394.513L267.546 244.165L296.413 194.165L352.322 291H401.5C415.285 291 426.5 302.215 426.5 316C426.5 329.785 415.285 341 401.5 341Z" fill="#294B51"/>
<rect x="54" y="70" width="413" height="367" fill="#294B51"/>
<g clip-path="url(#clip0)">
<path d="M429.791 317.875C432.873 324.646 429.885 332.629 423.114 335.698L275.043 403.003C273.279 403.81 271.381 404.214 269.47 404.214C268.137 404.214 266.805 404.012 265.512 403.622L90.5191 349.778C83.4116 347.584 79.4272 340.046 81.6079 332.952C83.7885 325.844 91.3402 321.819 98.4341 324.04L268.555 376.39L411.968 311.199C418.806 308.062 426.735 311.131 429.791 317.875ZM268.555 322.546L98.4341 270.196C91.3402 267.975 83.802 272 81.6079 279.108C79.4137 286.201 83.4116 293.74 90.5191 295.934L265.512 349.778C266.805 350.168 268.137 350.37 269.47 350.37C271.381 350.37 273.279 349.966 275.043 349.159L423.114 281.854C429.885 278.771 432.873 270.802 429.791 264.031C426.721 257.287 418.806 254.258 411.968 257.354L268.555 322.546ZM81.029 229.894C80.7464 224.24 84.0308 219.018 89.2403 216.81L187.519 175.39C206.863 167.233 216.07 157.056 216.07 121.25C216.07 117.118 217.968 113.2 221.226 110.656C224.483 108.099 228.723 107.197 232.748 108.179L406.92 151.093C412.924 152.574 417.164 157.972 417.164 164.164V166.21C417.178 206.028 417.191 232.317 368.422 252.872C335.779 266.629 275.81 294.938 275.218 295.234C273.414 296.095 271.435 296.526 269.47 296.526C268.137 296.526 266.805 296.324 265.512 295.934L90.5191 242.09C85.1077 240.421 81.3117 235.548 81.029 229.894ZM133.823 227.242L268.433 268.675C283.402 261.635 329.843 239.922 357.949 228.077C387.711 215.531 390.054 205.88 390.215 174.717L242.279 138.251C239.681 165.873 229.208 187.034 197.992 200.199L133.823 227.242Z" fill="white"/>
</g>
<defs>
<clipPath id="clip0">
<rect width="350" height="350" fill="white" transform="translate(81 81)"/>
</clipPath>
</defs>
</svg>
